<svg width="31" height="35" xmlns="http://www.w3.org/2000/svg"><path fill-rule="evenodd" clip-rule="evenodd" d="M30.303 10.28c-.652-1.117-1.35-2.173-1.964-2.974-.905-1.18-1.44-1.598-2.043-1.598-.572 0-1.037.4-1.56 1.002a18.756 18.756 0 0 0-1.326 1.776 34.588 34.588 0 0 0-1.924 3.243 69.674 69.674 0 0 0-1.597-2.891c-1.316-2.252-2.719-4.376-3.951-5.983C13.917.221 13.157 0 12.603 0 12.05 0 11.29.22 9.27 2.855 8.037 4.462 6.634 6.586 5.318 8.838 3.737 11.544.059 18.287.059 22.456.06 29.373 5.687 35 12.603 35c6.49 0 11.845-4.954 12.48-11.279a6.652 6.652 0 0 0 7.856-6.533c.001-2.084-1.65-5.223-2.636-6.908Zm-17.7 22.67c-5.786 0-10.493-4.708-10.493-10.494 0-2.443 1.75-6.954 4.68-12.068 2.616-4.565 4.948-7.5 5.813-8.224.866.724 3.198 3.66 5.813 8.224 2.931 5.114 4.68 9.625 4.68 12.068 0 5.786-4.707 10.493-10.493 10.493Zm13.693-11.168a4.6 4.6 0 0 1-1.192-.157c-.226-2.26-1.297-5.068-2.467-7.573 1.14-2.547 2.831-5.056 3.658-6.013.522.601 1.446 1.869 2.474 3.686 1.328 2.348 2.12 4.39 2.12 5.463a4.6 4.6 0 0 1-4.593 4.594Z" fill="#fff"/><path fill-rule="evenodd" clip-rule="evenodd" d="M15.419 17.58a1.025 1.025 0 0 0-1.401.375L9.413 25.93a1.025 1.025 0 0 0 1.776 1.026l4.605-7.977a1.025 1.025 0 0 0-.375-1.4ZM10.04 19.62c0-.566-.46-1.026-1.025-1.026s-1.026.46-1.026 1.025.46 1.026 1.026 1.026c.564 0 1.025-.461 1.025-1.026ZM15.85 24.404c-.564 0-1.025.46-1.025 1.026 0 .564.46 1.025 1.026 1.025.564 0 1.025-.46 1.025-1.025s-.46-1.026-1.025-1.026Z" fill="#fff"/></svg>