<svg width="35" height="35" viewBox="0 0 35 35" fill="none" xmlns="http://www.w3.org/2000/svg">
<path d="M17.5 27.002C12.2606 27.002 7.99805 22.7394 7.99805 17.5C7.99805 12.2606 12.2606 7.99805 17.5 7.99805C22.7394 7.99805 27.002 12.2606 27.002 17.5C27.002 22.7394 22.7394 27.002 17.5 27.002Z" fill="#FDBF00"/>
<path d="M17.5 5.58106C16.9337 5.58106 16.4746 5.12196 16.4746 4.55567V1.02539C16.4746 0.459102 16.9337 0 17.5 0C18.0663 0 18.5254 0.459102 18.5254 1.02539V4.55567C18.5254 5.12196 18.0663 5.58106 17.5 5.58106Z" fill="#FDBF00"/>
<path d="M33.9746 18.5254H30.4443C29.878 18.5254 29.4189 18.0663 29.4189 17.5C29.4189 16.9337 29.878 16.4746 30.4443 16.4746H33.9746C34.5409 16.4746 35 16.9337 35 17.5C35 18.0663 34.5409 18.5254 33.9746 18.5254Z" fill="#FF8856"/>
<path d="M17.5 35.0001C16.9337 35.0001 16.4746 34.541 16.4746 33.9747V30.4444C16.4746 29.8781 16.9337 29.419 17.5 29.419C18.0663 29.419 18.5254 29.8781 18.5254 30.4444V33.9747C18.5254 34.541 18.0663 35.0001 17.5 35.0001Z" fill="#FDBF00"/>
<path d="M4.55567 18.5254H1.02539C0.459102 18.5254 0 18.0663 0 17.5C0 16.9337 0.459102 16.4746 1.02539 16.4746H4.55567C5.12196 16.4746 5.58106 16.9337 5.58106 17.5C5.58106 18.0663 5.12196 18.5254 4.55567 18.5254Z" fill="#FDBF00"/>
<path d="M26.6531 9.37241C26.3907 9.37241 26.1282 9.27233 25.9281 9.07204C25.5276 8.67166 25.5276 8.02238 25.9281 7.62193L28.4244 5.12565C28.8248 4.72521 29.474 4.72521 29.8745 5.12565C30.2749 5.52604 30.2749 6.17531 29.8745 6.57576L27.3782 9.07204C27.178 9.27233 26.9155 9.37241 26.6531 9.37241Z" fill="#FF8856"/>
<path d="M29.1493 30.1746C28.8869 30.1746 28.6245 30.0745 28.4243 29.8743L25.928 27.378C25.5275 26.9777 25.5275 26.3284 25.928 25.9279C26.3283 25.5276 26.9776 25.5275 27.3781 25.9279L29.8744 28.4242C30.2748 28.8246 30.2748 29.4739 29.8744 29.8743C29.6742 30.0745 29.4117 30.1746 29.1493 30.1746Z" fill="#FF8856"/>
<path d="M5.85067 30.1747C5.58824 30.1747 5.32581 30.0746 5.12565 29.8744C4.72521 29.474 4.72521 28.8247 5.12565 28.4242L7.62193 25.928C8.02231 25.5275 8.67159 25.5275 9.07204 25.928C9.47249 26.3283 9.47249 26.9776 9.07204 27.3781L6.57576 29.8744C6.37554 30.0746 6.1131 30.1747 5.85067 30.1747Z" fill="#FDBF00"/>
<path d="M8.34689 9.37241C8.08446 9.37241 7.82203 9.27233 7.62188 9.07204L5.12553 6.57576C4.72508 6.17538 4.72508 5.5261 5.12553 5.12565C5.52591 4.72521 6.17519 4.72521 6.57564 5.12565L9.07198 7.62193C9.47243 8.02231 9.47243 8.67159 9.07198 9.07204C8.87176 9.27233 8.60932 9.37241 8.34689 9.37241Z" fill="#FDBF00"/>
<path d="M22.4672 6.57266C22.336 6.57266 22.2028 6.54737 22.0741 6.49391C21.5512 6.2766 21.3034 5.67647 21.5207 5.15352L22.8754 1.8936C23.0929 1.37058 23.693 1.12298 24.2158 1.34023C24.7387 1.55755 24.9865 2.15767 24.7692 2.68062L23.4145 5.94054C23.2506 6.33477 22.8691 6.57266 22.4672 6.57266Z" fill="#FF8856"/>
<path d="M32.7128 24.8481C32.5816 24.8481 32.4484 24.8228 32.3196 24.7693L29.0597 23.4146C28.5368 23.1973 28.2891 22.5971 28.5063 22.0742C28.7237 21.5512 29.3237 21.3035 29.8467 21.5208L33.1067 22.8756C33.6296 23.0929 33.8773 23.693 33.6601 24.2159C33.4962 24.6102 33.1147 24.8481 32.7128 24.8481Z" fill="#FF8856"/>
<path d="M11.1773 33.7388C11.0461 33.7388 10.9129 33.7135 10.7841 33.66C10.2613 33.4427 10.0135 32.8426 10.2308 32.3197L11.5855 29.0597C11.8029 28.5367 12.4029 28.2891 12.9259 28.5064C13.4488 28.7237 13.6965 29.3238 13.4793 29.8468L12.1245 33.1067C11.9607 33.5009 11.5792 33.7388 11.1773 33.7388Z" fill="#FDBF00"/>
<path d="M5.5464 13.5581C5.41522 13.5581 5.28199 13.5328 5.15327 13.4794L1.89334 12.1246C1.37039 11.9073 1.12266 11.3072 1.33991 10.7842C1.55729 10.2613 2.15735 10.0137 2.6803 10.2309L5.94022 11.5856C6.4631 11.8029 6.71083 12.4031 6.49359 12.926C6.3298 13.3203 5.94828 13.5581 5.5464 13.5581Z" fill="#FDBF00"/>
<path d="M29.4652 13.5859C29.0624 13.5859 28.6803 13.3469 28.517 12.9515C28.3009 12.428 28.5501 11.8285 29.0736 11.6124L32.3366 10.2652C32.8599 10.0492 33.4596 10.2983 33.6757 10.8217C33.8918 11.3452 33.6427 11.9448 33.1192 12.1608L29.8561 13.508C29.7281 13.5608 29.5956 13.5859 29.4652 13.5859Z" fill="#FF8856"/>
<path d="M23.7872 33.7537C23.3843 33.7537 23.0023 33.5148 22.839 33.1193L21.4918 29.8562C21.2757 29.3327 21.5248 28.7332 22.0484 28.5171C22.5717 28.301 23.1714 28.5501 23.3875 29.0736L24.7346 32.3367C24.9507 32.8601 24.7016 33.4597 24.178 33.6758C24.05 33.7287 23.9175 33.7537 23.7872 33.7537Z" fill="#FF8856"/>
<path d="M2.2724 24.8122C1.86949 24.8122 1.4875 24.5733 1.32419 24.1779C1.1081 23.6544 1.35727 23.0548 1.88077 22.8388L5.1439 21.4916C5.66754 21.2754 6.26691 21.5247 6.483 22.0481C6.69908 22.5715 6.44991 23.1711 5.92641 23.3871L2.66328 24.7344C2.53531 24.7872 2.40269 24.8122 2.2724 24.8122Z" fill="#FDBF00"/>
<path d="M12.5608 6.56098C12.158 6.56098 11.7759 6.32207 11.6126 5.92661L10.2655 2.66347C10.0494 2.14004 10.2985 1.54046 10.8221 1.32438C11.3454 1.1083 11.945 1.3574 12.1612 1.88089L13.5083 5.14403C13.7244 5.66753 13.4753 6.26704 12.9517 6.48312C12.8238 6.53589 12.6912 6.56098 12.5608 6.56098Z" fill="#FDBF00"/>
<path d="M17.5 0V5.58106C18.0663 5.58106 18.5254 5.12196 18.5254 4.55567V1.02539C18.5254 0.459102 18.0663 0 17.5 0Z" fill="#FF8856"/>
<path d="M17.5 7.99805V27.002C22.7394 27.002 27.002 22.7394 27.002 17.5C27.002 12.2606 22.7394 7.99805 17.5 7.99805Z" fill="#FF8856"/>
<path d="M17.5 29.419V35.0001C18.0663 35.0001 18.5254 34.541 18.5254 33.9747V30.4444C18.5254 29.8781 18.0663 29.419 17.5 29.419Z" fill="#FF8856"/>
</svg>
