<svg width="35" height="35" xmlns="http://www.w3.org/2000/svg"><path d="M27.689 2.891a7.336 7.336 0 0 0-4.577 1.61 1.025 1.025 0 0 0 1.284 1.6 5.278 5.278 0 0 1 3.293-1.159c2.9 0 5.26 2.36 5.26 5.26s-2.36 5.26-5.26 5.26H8.409a1.025 1.025 0 0 0 0 2.051h19.28c4.031 0 7.311-3.28 7.311-7.31 0-4.032-3.28-7.312-7.311-7.312Z" fill="#fff"/><path d="M6.444 13.418h10.953a1.025 1.025 0 1 0 0-2.05H6.444a1.025 1.025 0 0 0 0 2.05ZM17.11 19.57H1.025a1.025 1.025 0 0 0 0 2.052H17.11a4.223 4.223 0 0 1 4.218 4.218 4.223 4.223 0 0 1-4.218 4.218c-.957 0-1.895-.33-2.64-.929a1.025 1.025 0 0 0-1.285 1.6 6.291 6.291 0 0 0 3.925 1.38 6.276 6.276 0 0 0 6.269-6.27 6.276 6.276 0 0 0-6.269-6.268ZM1.025 13.418H2.41a1.025 1.025 0 0 0 0-2.05H1.025a1.025 1.025 0 0 0 0 2.05Z" fill="#fff"/><path d="M13.398 24.678c0-.567-.459-1.026-1.025-1.026H6.221a1.025 1.025 0 0 0 0 2.051h6.152c.566 0 1.025-.459 1.025-1.025Z" fill="#fff"/></svg>