<svg width="35" height="35" viewBox="0 0 35 35" fill="none" xmlns="http://www.w3.org/2000/svg">
<path d="M27.689 2.89124C26.0307 2.89124 24.4052 3.46299 23.1121 4.50117C22.6705 4.85575 22.6 5.50106 22.9544 5.94266C23.309 6.38419 23.9544 6.45488 24.396 6.1003C25.3264 5.35333 26.4959 4.94202 27.689 4.94202C30.5895 4.94202 32.9492 7.30171 32.9492 10.2022C32.9492 13.1027 30.5894 15.4624 27.689 15.4624H8.40808C7.84179 15.4624 7.38269 15.9215 7.38269 16.4878C7.38269 17.0541 7.84179 17.5132 8.40808 17.5132H27.689C31.7203 17.5132 35 14.2335 35 10.2022C35 6.17091 31.7202 2.89124 27.689 2.89124Z" fill="black"/>
<path d="M6.44373 13.4185H17.3974C17.9638 13.4185 18.4228 12.9594 18.4228 12.3931C18.4228 11.8268 17.9638 11.3677 17.3974 11.3677H6.44373C5.87744 11.3677 5.41833 11.8268 5.41833 12.3931C5.41833 12.9594 5.87744 13.4185 6.44373 13.4185Z" fill="black"/>
<path d="M17.11 19.5709H1.02539C0.459102 19.5709 0 20.03 0 20.5963C0 21.1626 0.459102 21.6217 1.02539 21.6217H17.11C19.4359 21.6217 21.3283 23.514 21.3283 25.8399C21.3283 28.1658 19.4359 30.0581 17.11 30.0581C16.1532 30.0581 15.2154 29.7282 14.4693 29.1292C14.0278 28.7747 13.3824 28.8452 13.0278 29.2868C12.6732 29.7284 12.7438 30.3738 13.1854 30.7283C14.2943 31.6185 15.6881 32.1088 17.11 32.1088C20.5667 32.1088 23.379 29.2965 23.379 25.8398C23.379 22.3831 20.5667 19.5709 17.11 19.5709Z" fill="black"/>
<path d="M1.02539 13.4185H2.40864C2.97493 13.4185 3.43403 12.9594 3.43403 12.3931C3.43403 11.8268 2.97493 11.3677 2.40864 11.3677H1.02539C0.459102 11.3677 0 11.8268 0 12.3931C0 12.9594 0.459102 13.4185 1.02539 13.4185Z" fill="black"/>
<path d="M13.3984 24.6778C13.3984 24.1115 12.9393 23.6524 12.373 23.6524H6.2207C5.65441 23.6524 5.19531 24.1115 5.19531 24.6778C5.19531 25.2441 5.65441 25.7032 6.2207 25.7032H12.373C12.9394 25.7032 13.3984 25.2441 13.3984 24.6778Z" fill="black"/>
</svg>
