<svg width="31" height="35" viewBox="0 0 31 35" fill="none" xmlns="http://www.w3.org/2000/svg">
<path d="M18.2221 4.5068C18.4477 4.07914 18.5762 3.59249 18.5762 3.07617C18.5762 1.37997 17.1962 0 15.5 0C13.8038 0 12.4238 1.37997 12.4238 3.07617C12.4238 3.59249 12.5523 4.07914 12.778 4.5068C5.59823 5.79537 0.13269 12.0878 0.13269 19.6327C0.13269 28.1062 7.02646 35 15.5 35C23.9736 35 30.8673 28.1062 30.8673 19.6327C30.8673 12.0878 25.4018 5.79544 18.2221 4.5068ZM15.5 2.05078C16.0654 2.05078 16.5254 2.51077 16.5254 3.07617C16.5254 3.64157 16.0654 4.10156 15.5 4.10156C14.9346 4.10156 14.4746 3.64157 14.4746 3.07617C14.4746 2.51077 14.9346 2.05078 15.5 2.05078ZM15.5 32.9492C8.15726 32.9492 2.18347 26.9754 2.18347 19.6327C2.18347 12.2899 8.15726 6.31613 15.5 6.31613C22.8428 6.31613 28.8166 12.2899 28.8166 19.6327C28.8166 26.9754 22.8428 32.9492 15.5 32.9492Z" fill="black"/>
<path d="M23.5194 11.692C23.5051 11.6757 23.4912 11.6591 23.4756 11.6435C23.4591 11.627 23.4417 11.6123 23.4244 11.5972C21.3837 9.58453 18.5838 8.33984 15.5 8.33984C12.403 8.33984 9.59346 9.59328 7.55122 11.6192C7.54234 11.6275 7.53297 11.6348 7.52436 11.6435C7.51711 11.6508 7.51103 11.6586 7.50406 11.6659C5.46777 13.7096 4.20715 16.5266 4.20715 19.6327C4.20715 20.199 4.66625 20.6581 5.23254 20.6581H6.39465C6.96094 20.6581 7.42004 20.199 7.42004 19.6327C7.42004 19.0664 6.96094 18.6073 6.39465 18.6073H6.31515C6.51305 16.8229 7.22084 15.1903 8.28937 13.8586L8.34611 13.9154C8.54633 14.1156 8.80876 14.2157 9.07113 14.2157C9.33349 14.2157 9.59599 14.1157 9.79615 13.9154C10.1966 13.5149 10.1966 12.8657 9.79615 12.4653L9.74091 12.41C11.0699 11.3482 12.6969 10.6451 14.4746 10.4479V10.5273C14.4746 11.0936 14.9337 11.5527 15.5 11.5527C16.0663 11.5527 16.5254 11.0936 16.5254 10.5273V10.4479C18.3024 10.6452 19.9293 11.3487 21.2583 12.4107L21.2038 12.4652C20.8034 12.8656 20.8034 13.5149 21.2038 13.9153C21.404 14.1155 21.6665 14.2157 21.9288 14.2157C22.1912 14.2157 22.4537 14.1156 22.6539 13.9153L22.7098 13.8593C23.7758 15.1876 24.4831 16.8152 24.6832 18.5938H24.5918C24.0255 18.5938 23.5664 19.0529 23.5664 19.6191C23.5664 20.1854 24.0255 20.6445 24.5918 20.6445C24.5918 20.6445 25.7683 20.6444 25.7688 20.6444C26.3351 20.6436 26.7936 20.1839 26.7928 19.6176C26.7886 16.531 25.5381 13.7305 23.5194 11.692Z" fill="black"/>
<path d="M20.1499 14.9825C19.7495 14.5821 19.1002 14.5821 18.6998 14.9825L14.4178 19.2645C13.9438 19.038 13.4146 18.9334 12.8786 18.971C12.3137 19.0105 11.8876 19.5004 11.9271 20.0653C11.9665 20.6302 12.456 21.0565 13.0214 21.0168C13.3176 20.996 13.6078 21.1047 13.8178 21.3147C14.0245 21.5214 14.1333 21.8073 14.1164 22.0992C14.0836 22.6645 14.5152 23.1494 15.0806 23.1822C15.1008 23.1835 15.1209 23.184 15.1409 23.184C15.68 23.184 16.132 22.7631 16.1637 22.218C16.194 21.6949 16.0887 21.1786 15.8676 20.7151L20.1499 16.4327C20.5504 16.0322 20.5504 15.383 20.1499 14.9825Z" fill="black"/>
<path d="M21.3789 27.002H9.62109C9.0548 27.002 8.5957 27.4611 8.5957 28.0273C8.5957 28.5936 9.0548 29.0527 9.62109 29.0527H21.3789C21.9452 29.0527 22.4043 28.5936 22.4043 28.0273C22.4043 27.4611 21.9452 27.002 21.3789 27.002Z" fill="black"/>
</svg>
