<svg width="31" height="35" xmlns="http://www.w3.org/2000/svg"><path d="M18.222 4.507c.226-.428.354-.915.354-1.43A3.08 3.08 0 0 0 15.5 0a3.08 3.08 0 0 0-3.076 3.076c0 .516.128 1.003.354 1.43C5.598 5.797.133 12.089.133 19.634.133 28.106 7.026 35 15.5 35s15.367-6.894 15.367-15.367c0-7.545-5.465-13.838-12.645-15.126ZM15.5 2.05a1.027 1.027 0 0 1 0 2.05 1.027 1.027 0 0 1 0-2.05Zm0 30.898c-7.343 0-13.317-5.974-13.317-13.316 0-7.343 5.974-13.317 13.317-13.317s13.317 5.974 13.317 13.317c0 7.342-5.974 13.316-13.317 13.316Z" fill="#fff"/><path d="m23.52 11.692-.044-.049-.052-.046A11.256 11.256 0 0 0 15.5 8.34a11.256 11.256 0 0 0-7.949 3.28l-.027.024-.02.022a11.257 11.257 0 0 0-3.297 7.967c0 .566.46 1.025 1.026 1.025h1.162a1.025 1.025 0 0 0 0-2.05h-.08a9.199 9.199 0 0 1 1.974-4.75l.057.057a1.022 1.022 0 0 0 1.45 0c.4-.4.4-1.05 0-1.45l-.055-.055a9.2 9.2 0 0 1 4.734-1.962v.08a1.025 1.025 0 0 0 2.05 0v-.08c1.777.197 3.404.9 4.733 1.963l-.054.054a1.025 1.025 0 0 0 1.45 1.45l.056-.056a9.2 9.2 0 0 1 1.973 4.735h-.091a1.025 1.025 0 1 0 0 2.05h1.177c.566 0 1.025-.46 1.024-1.026a11.256 11.256 0 0 0-3.274-7.926Z" fill="#fff"/><path d="M20.15 14.982c-.4-.4-1.05-.4-1.45 0l-4.282 4.283a3.07 3.07 0 0 0-1.54-.294 1.025 1.025 0 0 0 .143 2.046 1.024 1.024 0 0 1 1.095 1.082 1.025 1.025 0 1 0 2.048.119 3.078 3.078 0 0 0-.296-1.503l4.282-4.282c.4-.4.4-1.05 0-1.45ZM21.379 27.002H9.62a1.025 1.025 0 0 0 0 2.05H21.38a1.025 1.025 0 0 0 0-2.05Z" fill="#fff"/></svg>