<?xml version="1.0" standalone="no"?>
<!DOCTYPE svg PUBLIC "-//W3C//DTD SVG 1.0//EN" "http://www.w3.org/TR/2001/REC-SVG-20010904/DTD/svg10.dtd">
<svg xmlns="http://www.w3.org/2000/svg" xmlns:xlink="http://www.w3.org/1999/xlink" id="body_1" width="19" height="21">

<g transform="matrix(0.6 0 0 0.6 0.19999984 -0)">
    <path d="M30.3033 10.2796C 29.6508 9.16279 28.9532 8.10691 28.339 7.30635C 27.4337 6.12619 26.899 5.70789 26.2957 5.70789C 25.7237 5.70789 25.2586 6.10848 24.7362 6.70998C 24.3515 7.15288 23.893 7.76702 23.4104 8.48576C 22.7186 9.51573 22.0544 10.639 21.4865 11.7289C 20.8781 10.5626 20.3094 9.55743 19.8889 8.83781C 18.5732 6.58618 17.17 4.46156 15.9377 2.85518C 13.9168 0.220665 13.157 0 12.6034 0C 12.0499 0 11.2901 0.220665 9.26906 2.85525C 8.03681 4.46163 6.63359 6.58625 5.31795 8.83788C 3.73686 11.5436 0.0594482 18.287 0.0594482 22.4561C 0.0594482 29.3729 5.68668 35.0001 12.6034 35.0001C 19.0932 35.0001 24.4475 30.0462 25.0839 23.7213C 25.4817 23.7948 25.8866 23.833 26.2957 23.833C 29.9596 23.833 32.9404 20.8523 32.9404 17.1883C 32.9404 15.1038 31.2883 11.9651 30.3033 10.2796zM12.6034 32.9492C 6.81748 32.9492 2.11024 28.242 2.11024 22.456C 2.11024 20.0134 3.85977 15.5019 6.79028 10.3879C 9.40606 5.82315 11.7382 2.88799 12.6034 2.1642C 13.4687 2.88799 15.8008 5.82308 18.4165 10.3879C 21.3471 15.502 23.0966 20.0134 23.0966 22.456C 23.0966 28.242 18.3894 32.9492 12.6034 32.9492zM26.2957 21.7822C 25.8898 21.7822 25.4903 21.7291 25.1035 21.6255C 24.8776 19.3657 23.8069 16.5568 22.6365 14.0516C 23.7768 11.5052 25.4685 8.99599 26.2947 8.03862C 26.8166 8.64004 27.7408 9.9075 28.7687 11.7249C 30.0968 14.0729 30.8896 16.1153 30.8896 17.1883C 30.8896 19.7213 28.8288 21.7822 26.2957 21.7822z" stroke="none" fill="#000000" fill-rule="nonzero" />
    <path d="M15.4186 17.5796C 14.9281 17.2962 14.3011 17.4645 14.0179 17.9549L14.0179 17.9549L9.41281 25.9312C 9.12967 26.4217 9.2977 27.0488 9.78811 27.3319C 9.94957 27.4251 10.1259 27.4695 10.2998 27.4695C 10.6542 27.4695 10.9989 27.2855 11.1888 26.9566L11.1888 26.9566L15.7939 18.9803C 16.077 18.4898 15.909 17.8627 15.4186 17.5796z" stroke="none" fill="#000000" fill-rule="nonzero" />
    <path d="M10.04 19.6191C 10.04 19.0543 9.57943 18.5937 9.01465 18.5937C 8.44986 18.5937 7.98926 19.0544 7.98926 19.6191C 7.98926 20.1839 8.44993 20.6445 9.01465 20.6445C 9.57937 20.6445 10.04 20.1839 10.04 19.6191z" stroke="none" />
    <path d="M15.8506 24.4041C 15.2858 24.4041 14.8252 24.8647 14.8252 25.4295C 14.8252 25.9943 15.2859 26.4549 15.8506 26.4549C 16.4154 26.4549 16.876 25.9942 16.876 25.4295C 16.876 24.8647 16.4153 24.4041 15.8506 24.4041z" stroke="none"/>
</g>
</svg>