<svg width="30" height="20" viewBox="0 0 30 20" fill="none" xmlns="http://www.w3.org/2000/svg">
<path d="M14.5696 19.028C13.4014 19.028 12.2583 18.6246 11.3508 17.8921C10.8815 17.5133 10.4843 17.0546 10.176 16.543C9.51057 16.9491 8.73811 17.1734 7.94288 17.1734C6.0323 17.1734 4.38669 15.9024 3.84583 14.1437C2.96399 14.0524 2.12317 13.6892 1.44758 13.0924C0.527666 12.2798 0 11.1095 0 9.88168C0 7.66294 1.69511 5.83275 3.85813 5.61776C4.0803 4.91708 4.48144 4.28092 5.03152 3.77131C5.82572 3.03549 6.85966 2.63032 7.94288 2.63032C8.73065 2.63032 9.49676 2.85085 10.1583 3.25013C10.4657 2.73218 10.8639 2.2674 11.336 1.88343C12.2462 1.14309 13.3946 0.735397 14.5696 0.735397C15.7447 0.735397 16.8931 1.14309 17.8032 1.88343C18.2753 2.2674 18.6735 2.73224 18.9809 3.25013C19.6425 2.85092 20.4086 2.63032 21.1964 2.63032C22.2796 2.63032 23.3136 3.03555 24.1078 3.77131C24.658 4.28113 25.0592 4.91742 25.2813 5.61845C26.167 5.70765 27.0117 6.07098 27.6903 6.66974C28.6112 7.4824 29.1393 8.65312 29.1393 9.88168C29.1393 11.1095 28.6117 12.2798 27.6917 13.0924C27.0162 13.6891 26.1753 14.0523 25.2934 14.1436C24.7526 15.9023 23.1069 17.1734 21.1964 17.1734C20.4012 17.1734 19.6286 16.9489 18.9633 16.543C18.655 17.0546 18.2578 17.5133 17.7885 17.892C16.8809 18.6246 15.7378 19.028 14.5696 19.028Z" fill="#FFF4F4"/>
</svg>
